{"glyphs":{"0":{"ha":939,"x_min":40,"x_max":965,"o":"m 595 245 q 625 257 612 245 q 641 286 639 269 l 691 694 q 682 723 693 711 q 656 735 672 735 l 410 735 q 380 723 393 735 q 364 694 366 711 l 314 286 q 323 257 312 269 q 350 245 333 245 l 595 245 m 115 0 q 61 24 81 0 q 44 81 40 47 l 144 899 q 176 956 149 932 q 236 980 202 980 l 890 980 q 945 956 924 980 q 961 899 965 932 l 861 81 q 830 24 857 47 q 769 0 803 0 l 115 0 z "},"1":{"ha":530,"x_min":124,"x_max":572,"o":"m 197 0 l 287 735 l 124 735 l 154 980 l 317 980 l 327 1062 l 572 1062 l 442 0 l 197 0 z "},"2":{"ha":939,"x_min":34,"x_max":970,"o":"m 34 0 l 64 245 l 614 735 l 369 735 l 349 572 l 104 572 l 154 980 l 970 980 l 941 735 l 390 245 l 880 245 l 850 0 l 34 0 z "},"3":{"ha":857,"x_min":34,"x_max":889,"o":"m 34 0 l 64 245 l 431 245 q 462 257 448 245 q 477 286 475 269 l 492 408 l 84 408 l 104 572 l 513 572 l 532 735 l 124 735 l 154 980 l 562 980 l 572 1062 l 817 1062 l 807 980 l 889 980 l 859 735 l 777 735 l 758 572 l 840 572 l 819 408 l 737 408 l 697 81 q 666 24 693 47 q 606 0 640 0 l 34 0 z "},"4":{"ha":857,"x_min":84,"x_max":840,"o":"m 197 0 l 227 245 l 349 245 q 380 257 366 245 q 395 286 393 269 l 410 408 l 84 408 l 155 980 l 399 980 l 349 572 l 431 572 l 450 735 l 696 735 l 676 572 l 840 572 l 819 408 l 656 408 l 616 81 q 584 24 612 47 q 524 0 557 0 l 197 0 z "},"5":{"ha":1021,"x_min":115,"x_max":1053,"o":"m 115 0 l 145 245 l 676 245 q 707 257 693 245 q 722 286 720 269 l 732 368 q 724 396 734 385 q 696 408 713 408 l 165 408 l 205 735 l 124 735 l 154 980 l 235 980 l 245 1062 l 490 1062 l 480 980 l 1053 980 l 1023 735 l 450 735 l 431 572 l 921 572 q 975 547 955 572 q 993 490 997 524 l 943 81 q 911 24 939 47 q 850 0 884 0 l 115 0 z "},"6":{"ha":1021,"x_min":121,"x_max":1053,"o":"m 677 245 q 707 257 694 245 q 722 286 720 269 l 732 368 q 724 396 734 385 q 696 408 713 408 l 410 408 l 395 286 q 404 257 393 269 q 432 245 415 245 l 677 245 m 197 0 q 142 24 163 0 q 125 81 121 47 l 206 735 l 125 735 l 155 980 l 236 980 l 246 1062 l 491 1062 l 481 980 l 1053 980 l 1023 735 l 451 735 l 431 572 l 921 572 q 975 547 955 572 q 993 490 997 524 l 943 81 q 911 24 939 47 q 850 0 884 0 l 197 0 z "},"7":{"ha":1021,"x_min":124,"x_max":1002,"o":"m 279 0 l 319 326 l 410 408 l 247 408 l 267 572 l 593 572 l 686 653 l 696 735 l 124 735 l 154 980 l 970 980 l 920 572 l 1002 572 l 983 408 l 737 408 l 553 245 l 524 0 l 279 0 z "},"8":{"ha":939,"x_min":40,"x_max":965,"o":"m 595 245 q 625 257 612 245 q 641 286 639 269 l 651 368 q 642 396 653 385 q 615 408 631 408 l 370 408 q 340 396 353 408 q 324 368 326 385 l 314 286 q 323 257 312 269 q 350 245 333 245 l 595 245 m 635 572 q 665 583 652 572 q 681 612 679 595 l 691 694 q 682 723 693 711 q 656 735 672 735 l 410 735 q 380 723 393 735 q 364 694 366 711 l 354 612 q 363 583 352 595 q 390 572 373 572 l 635 572 m 115 0 q 61 24 81 0 q 44 81 40 47 l 144 899 q 176 956 149 932 q 236 980 202 980 l 890 980 q 945 956 924 980 q 961 899 965 932 l 861 81 q 830 24 857 47 q 769 0 803 0 l 115 0 z "},"9":{"ha":1021,"x_min":34,"x_max":1003,"o":"m 676 572 l 691 694 q 682 723 693 711 q 655 735 671 735 l 410 735 q 380 723 393 735 q 364 694 366 711 l 354 612 q 363 583 352 595 q 390 572 373 572 l 676 572 m 34 0 l 64 245 l 595 245 q 625 257 611 245 q 641 286 639 269 l 656 408 l 165 408 q 111 432 132 408 q 94 490 90 456 l 144 899 q 175 956 149 932 q 235 980 201 980 l 889 980 q 944 956 923 980 q 961 899 965 932 l 921 572 l 1003 572 l 983 408 l 901 408 l 861 81 q 829 24 857 47 q 769 0 803 0 l 34 0 z "}," ":{"ha":474,"x_min":0,"x_max":0,"o":""},"!":{"ha":367,"x_min":34,"x_max":409,"o":"m 34 0 l 64 245 l 309 245 l 279 0 l 34 0 m 74 326 l 164 1062 l 409 1062 l 319 326 l 74 326 z "},"\"":{"ha":694,"x_min":104,"x_max":726,"o":"m 104 572 l 155 980 l 399 980 l 349 572 l 104 572 m 431 572 l 481 980 l 726 980 l 676 572 l 431 572 z "},"#":{"ha":857,"x_min":64,"x_max":859,"o":"m 492 408 l 512 572 l 430 572 l 410 408 l 492 408 m 115 0 l 145 245 l 64 245 l 84 408 l 165 408 l 185 572 l 104 572 l 124 735 l 205 735 l 235 980 l 480 980 l 450 735 l 532 735 l 562 980 l 807 980 l 777 735 l 859 735 l 839 572 l 757 572 l 737 408 l 819 408 l 799 245 l 717 245 l 687 0 l 442 0 l 472 245 l 390 245 l 360 0 l 115 0 z "},"$":{"ha":857,"x_min":34,"x_max":889,"o":"m 269 -81 l 279 0 l 34 0 l 64 245 l 513 245 q 544 257 530 245 q 559 286 557 269 l 569 368 q 561 396 571 385 q 533 408 550 408 l 165 408 q 111 432 132 408 q 94 490 90 456 l 144 899 q 175 956 149 932 q 235 980 201 980 l 399 980 l 409 1062 l 654 1062 l 644 980 l 889 980 l 859 735 l 410 735 q 380 723 393 735 q 364 694 366 711 l 354 612 q 363 583 352 595 q 390 572 373 572 l 758 572 q 812 547 791 572 q 829 490 833 524 l 779 81 q 747 24 775 47 q 687 0 721 0 l 524 0 l 513 -81 l 269 -81 z "},"&":{"ha":1021,"x_min":40,"x_max":1003,"o":"m 115 0 q 61 24 81 0 q 44 81 40 47 l 144 899 q 176 956 149 932 q 236 980 202 980 l 971 980 l 941 735 l 410 735 q 380 723 393 735 q 364 694 366 711 l 349 572 l 513 572 l 492 408 l 329 408 l 314 286 q 323 257 312 269 q 350 245 333 245 l 595 245 q 625 257 612 245 q 641 286 639 269 l 656 408 l 574 408 l 594 572 l 1003 572 l 983 408 l 901 408 l 861 81 q 830 24 857 47 q 769 0 803 0 l 115 0 z "},"'":{"ha":367,"x_min":104,"x_max":399,"o":"m 104 572 l 155 980 l 399 980 l 349 572 l 104 572 z "},"(":{"ha":530,"x_min":40,"x_max":563,"o":"m 115 0 q 61 24 81 0 q 44 81 40 47 l 144 899 q 176 956 149 932 q 236 980 202 980 l 563 980 l 533 735 l 410 735 q 380 723 393 735 q 364 694 366 711 l 314 286 q 323 257 312 269 q 350 245 333 245 l 473 245 l 442 0 l 115 0 z "},")":{"ha":530,"x_min":34,"x_max":557,"o":"m 34 0 l 64 245 l 186 245 q 217 257 203 245 q 232 286 230 269 l 282 694 q 274 723 284 711 q 246 735 263 735 l 124 735 l 154 980 l 480 980 q 536 956 514 980 q 553 899 557 932 l 452 81 q 421 24 448 47 q 360 0 394 0 l 34 0 z "},",":{"ha":367,"x_min":24,"x_max":309,"o":"m 24 -81 l 64 245 l 309 245 l 269 -81 l 24 -81 z "},"-":{"ha":530,"x_min":84,"x_max":522,"o":"m 84 408 l 114 653 l 522 653 l 492 408 l 84 408 z "},".":{"ha":367,"x_min":34,"x_max":309,"o":"m 34 0 l 64 245 l 309 245 l 279 0 l 34 0 z "},"/":{"ha":958,"x_min":34,"x_max":989,"o":"m 34 0 l 663 980 l 989 980 l 360 0 l 34 0 z "},":":{"ha":367,"x_min":34,"x_max":359,"o":"m 34 0 l 64 245 l 309 245 l 279 0 l 34 0 m 84 408 l 114 653 l 359 653 l 329 408 l 84 408 z "},";":{"ha":367,"x_min":24,"x_max":359,"o":"m 24 -81 l 64 245 l 309 245 l 269 -81 l 24 -81 m 84 408 l 114 653 l 359 653 l 329 408 l 84 408 z "},"?":{"ha":939,"x_min":134,"x_max":976,"o":"m 279 0 l 309 245 l 554 245 l 524 0 l 279 0 m 319 326 l 359 653 l 645 653 q 676 665 662 653 q 691 694 689 677 l 701 776 q 693 805 703 793 q 665 817 682 817 l 134 817 l 164 1062 l 899 1062 q 954 1038 933 1062 q 972 980 976 1014 l 922 572 q 890 514 918 538 q 829 490 863 490 l 585 490 l 564 326 l 319 326 z "},"@":{"ha":1021,"x_min":40,"x_max":1047,"o":"m 533 408 q 564 420 550 408 q 579 449 577 432 l 589 531 q 581 559 591 547 q 553 572 570 572 q 523 559 536 572 q 508 531 509 547 l 498 449 q 505 420 496 432 q 533 408 516 408 l 533 408 m 115 0 q 61 24 81 0 q 44 81 40 47 l 144 899 q 176 956 149 932 q 236 980 202 980 l 971 980 q 1026 956 1005 980 q 1043 899 1047 932 l 972 326 l 482 326 q 428 351 448 326 q 410 408 406 374 l 431 572 q 462 629 435 606 q 523 653 489 653 l 686 653 l 656 408 l 737 408 l 772 694 q 764 723 774 711 q 737 735 754 735 l 410 735 q 380 723 393 735 q 364 694 366 711 l 314 286 q 323 257 312 269 q 350 245 333 245 l 963 245 l 943 81 q 911 24 939 47 q 850 0 884 0 l 115 0 z "},"A":{"ha":1021,"x_min":115,"x_max":1047,"o":"m 115 0 l 205 735 l 124 735 l 154 980 l 235 980 l 245 1062 l 490 1062 l 480 980 l 970 980 q 1025 956 1004 980 q 1043 899 1047 932 l 932 0 l 687 0 l 727 326 l 482 326 l 503 490 l 747 490 l 777 735 l 450 735 l 360 0 l 115 0 z "},"B":{"ha":1021,"x_min":34,"x_max":1047,"o":"m 431 572 l 450 735 l 736 735 q 764 723 753 735 q 772 694 774 711 l 762 612 q 747 583 760 595 q 717 572 734 572 l 431 572 m 279 0 q 339 24 313 0 q 370 81 366 47 l 410 408 l 696 408 q 724 396 713 408 q 732 368 734 385 l 722 286 q 707 257 720 269 q 676 245 693 245 l 472 245 l 442 0 l 850 0 q 911 24 884 0 q 943 81 939 47 l 983 408 q 965 466 987 442 q 911 490 945 490 q 971 514 945 490 q 1003 572 998 538 l 1043 899 q 1025 956 1047 932 q 970 980 1004 980 l 480 980 l 490 1062 l 245 1062 l 235 980 l 154 980 l 124 735 l 205 735 l 151 286 q 135 257 149 269 q 104 245 121 245 l 64 245 l 34 0 l 279 0 z "},"C":{"ha":1021,"x_min":121,"x_max":1047,"o":"m 197 0 q 142 24 163 0 q 125 81 121 47 l 206 735 l 125 735 l 155 980 l 236 980 l 246 1062 l 491 1062 l 481 980 l 971 980 q 1026 956 1005 980 q 1043 899 1047 932 l 1013 653 l 768 653 l 772 694 q 764 723 774 711 q 737 735 754 735 l 451 735 l 395 286 q 404 257 393 269 q 432 245 415 245 l 677 245 q 707 257 694 245 q 722 286 720 269 l 727 326 l 972 326 l 943 81 q 911 24 939 47 q 850 0 884 0 l 197 0 z "},"D":{"ha":1021,"x_min":115,"x_max":1047,"o":"m 115 0 l 205 735 l 124 735 l 154 980 l 235 980 l 245 1062 l 490 1062 l 480 980 l 970 980 q 1025 956 1004 980 q 1043 899 1047 932 l 943 81 q 911 24 939 47 q 850 0 884 0 l 442 0 l 472 245 l 717 245 l 777 735 l 450 735 l 360 0 l 115 0 z "},"E":{"ha":939,"x_min":84,"x_max":971,"o":"m 197 0 q 142 24 163 0 q 125 81 121 47 l 165 408 l 84 408 l 104 572 l 186 572 l 205 735 l 124 735 l 155 980 l 236 980 l 245 1062 l 490 1062 l 481 980 l 971 980 l 941 735 l 450 735 l 431 572 l 758 572 l 737 408 l 410 408 l 395 286 q 404 257 393 269 q 431 245 414 245 l 880 245 l 850 0 l 197 0 z "},"F":{"ha":939,"x_min":34,"x_max":970,"o":"m 34 0 l 64 245 l 104 245 q 135 257 121 245 q 151 286 149 269 l 165 408 l 84 408 l 104 572 l 186 572 l 205 735 l 124 735 l 154 980 l 235 980 l 245 1062 l 490 1062 l 480 980 l 970 980 l 941 735 l 450 735 l 431 572 l 758 572 l 737 408 l 410 408 l 370 81 q 339 24 366 47 q 279 0 313 0 l 34 0 z "},"G":{"ha":1021,"x_min":121,"x_max":1053,"o":"m 197 0 q 142 24 163 0 q 125 81 121 47 l 206 735 l 125 735 l 155 980 l 236 980 l 246 1062 l 491 1062 l 481 980 l 1053 980 l 1023 735 l 451 735 l 395 286 q 404 257 393 269 q 432 245 415 245 l 677 245 q 707 257 694 245 q 722 286 720 269 l 737 408 l 492 408 l 513 572 l 1003 572 l 943 81 q 911 24 939 47 q 850 0 884 0 l 197 0 z "},"H":{"ha":939,"x_min":84,"x_max":971,"o":"m 595 -81 l 656 408 l 410 408 l 360 0 l 115 0 l 165 408 l 84 408 l 104 572 l 186 572 l 245 1062 l 490 1062 l 431 572 l 676 572 l 726 980 l 971 980 l 840 -81 l 595 -81 z "},"I":{"ha":397,"x_min":64,"x_max":429,"o":"m 64 0 l 184 980 l 429 980 l 309 0 l 64 0 z "},"J":{"ha":530,"x_min":4,"x_max":563,"o":"m 4 -245 l 34 0 l 156 0 q 186 12 173 0 q 202 41 200 24 l 287 735 l 124 735 l 155 980 l 563 980 l 422 -163 q 391 -221 418 -197 q 330 -245 364 -245 l 4 -245 z "},"K":{"ha":891,"x_min":68,"x_max":903,"o":"m 68 0 l 188 980 l 433 980 l 393 653 l 760 980 l 903 817 l 628 572 l 791 572 q 846 547 825 572 q 863 490 867 524 l 803 0 l 557 0 l 603 368 q 595 396 605 385 q 567 408 584 408 l 363 408 l 313 0 l 68 0 z "},"L":{"ha":857,"x_min":84,"x_max":809,"o":"m 197 0 q 142 24 163 0 q 125 81 121 47 l 165 408 l 84 408 l 104 572 l 186 572 l 236 980 l 481 980 l 431 572 l 513 572 l 492 408 l 410 408 l 390 245 l 513 245 q 544 257 530 245 q 559 286 557 269 l 564 326 l 809 326 l 779 81 q 747 24 775 47 q 687 0 721 0 l 197 0 z "},"M":{"ha":1184,"x_min":115,"x_max":1211,"o":"m 115 0 l 205 735 l 124 735 l 154 980 l 235 980 l 245 1062 l 490 1062 l 480 980 l 1134 980 q 1189 956 1168 980 q 1206 899 1211 932 l 1096 0 l 850 0 l 936 694 q 928 723 938 711 q 900 735 917 735 l 819 735 l 748 163 l 503 163 l 573 735 l 450 735 l 360 0 l 115 0 z "},"N":{"ha":939,"x_min":115,"x_max":965,"o":"m 115 0 l 205 735 l 124 735 l 154 980 l 235 980 l 245 1062 l 490 1062 l 480 980 l 889 980 q 944 956 923 980 q 961 899 965 932 l 850 0 l 606 0 l 691 694 q 682 723 693 711 q 655 735 671 735 l 450 735 l 360 0 l 115 0 z "},"O":{"ha":969,"x_min":71,"x_max":996,"o":"m 626 245 q 656 257 642 245 q 671 286 669 269 l 722 694 q 713 723 724 711 q 686 735 703 735 l 441 735 q 410 723 424 735 q 395 694 397 711 l 345 286 q 353 257 342 269 q 380 245 363 245 l 626 245 m 146 0 q 92 24 112 0 q 75 81 71 47 l 175 899 q 206 956 179 932 q 267 980 233 980 l 920 980 q 975 956 954 980 q 991 899 996 932 l 891 81 q 861 24 887 47 q 800 0 833 0 l 146 0 z "},"P":{"ha":1021,"x_min":4,"x_max":1047,"o":"m 4 -245 l 34 0 l 75 0 q 104 12 92 0 q 121 41 119 24 l 205 735 l 124 735 l 155 980 l 236 980 l 246 1062 l 491 1062 l 481 980 l 971 980 q 1025 956 1005 980 q 1043 899 1047 932 l 983 408 q 951 351 979 374 q 890 326 924 326 l 482 326 l 503 490 l 707 490 q 737 502 724 490 q 752 531 750 514 l 772 694 q 764 723 774 711 q 736 735 753 735 l 450 735 l 340 -163 q 309 -221 336 -197 q 249 -245 283 -245 l 4 -245 z "},"Q":{"ha":969,"x_min":71,"x_max":996,"o":"m 626 245 q 656 257 642 245 q 671 286 669 269 l 722 694 q 713 723 724 711 q 686 735 703 735 l 441 735 q 410 723 424 735 q 395 694 397 711 l 345 286 q 353 257 342 269 q 380 245 363 245 l 626 245 m 340 -81 l 350 0 l 146 0 q 92 24 112 0 q 75 81 71 47 l 175 899 q 206 956 179 932 q 267 980 233 980 l 920 980 q 975 956 954 980 q 991 899 996 932 l 891 81 q 861 24 887 47 q 800 0 833 0 l 595 0 l 586 -81 l 340 -81 z "},"R":{"ha":1021,"x_min":75,"x_max":1047,"o":"m 360 0 l 450 735 l 736 735 q 764 723 753 735 q 772 694 774 711 l 762 612 q 747 583 760 595 q 717 572 734 572 l 513 572 l 492 408 l 696 408 q 724 396 713 408 q 732 368 734 385 l 687 0 l 932 0 l 983 408 q 965 466 987 442 q 911 490 945 490 q 971 514 945 490 q 1003 572 998 538 l 1043 899 q 1025 956 1047 932 q 970 980 1004 980 l 480 980 l 490 1062 l 245 1062 l 235 980 l 154 980 l 124 735 l 205 735 l 120 41 q 104 12 118 24 q 75 0 92 0 l 360 0 z "},"S":{"ha":889,"x_min":66,"x_max":921,"o":"m 66 0 l 96 245 l 545 245 q 576 257 562 245 q 591 286 589 269 l 601 368 q 593 396 603 385 q 565 408 582 408 l 197 408 q 142 432 163 408 q 126 490 122 456 l 176 899 q 207 956 180 932 q 267 980 233 980 l 921 980 l 891 735 l 441 735 q 412 723 425 735 q 396 694 398 711 l 386 612 q 395 583 384 595 q 422 572 405 572 l 789 572 q 844 547 823 572 q 861 490 865 524 l 811 81 q 779 24 807 47 q 719 0 753 0 l 66 0 z "},"T":{"ha":775,"x_min":124,"x_max":807,"o":"m 279 0 q 224 24 245 0 q 207 81 202 47 l 287 735 l 124 735 l 154 980 l 317 980 l 327 1062 l 572 1062 l 562 980 l 807 980 l 777 735 l 532 735 l 477 286 q 485 257 475 269 q 513 245 496 245 l 717 245 l 687 0 l 279 0 z "},"U":{"ha":989,"x_min":71,"x_max":968,"o":"m 593 -81 l 602 0 l 146 0 q 92 24 112 0 q 75 81 71 47 l 185 980 l 430 980 l 345 286 q 353 257 342 269 q 380 245 363 245 l 633 245 l 723 980 l 968 980 l 878 245 l 960 245 l 929 0 l 847 0 l 838 -81 l 593 -81 z "},"V":{"ha":972,"x_min":68,"x_max":1004,"o":"m 68 0 l 188 980 l 433 980 l 342 245 l 424 245 l 700 490 l 730 735 l 648 735 l 677 980 l 1004 980 l 935 408 l 476 0 l 68 0 z "},"W":{"ha":1134,"x_min":66,"x_max":1166,"o":"m 423 -81 l 433 0 l 66 0 l 186 980 l 431 980 l 340 245 l 463 245 l 553 980 l 798 980 l 708 245 l 831 245 l 921 980 l 1166 980 l 1046 0 l 678 0 l 668 -81 l 423 -81 z "},"X":{"ha":888,"x_min":64,"x_max":920,"o":"m 372 507 l 208 507 q 153 530 174 507 q 137 588 133 554 l 185 980 l 430 980 l 397 711 q 406 682 395 694 q 433 670 416 670 l 596 670 q 627 682 613 670 q 642 711 640 694 l 675 980 l 920 980 l 872 588 q 840 530 868 554 q 780 507 814 507 l 616 507 l 612 472 l 776 472 q 830 448 810 472 q 848 391 852 425 l 800 -1 l 554 -1 l 587 268 q 579 297 589 285 q 551 309 568 309 l 388 309 q 358 297 371 309 q 342 268 345 285 l 309 -1 l 64 -1 l 113 391 q 143 448 117 425 q 204 472 170 472 l 368 472 l 372 507 z "},"Y":{"ha":857,"x_min":90,"x_max":890,"o":"m 279 0 l 329 408 l 165 408 q 111 432 132 408 q 94 490 90 456 l 155 980 l 399 980 l 354 612 q 363 583 352 595 q 390 572 373 572 l 553 572 q 584 583 570 572 q 599 612 597 595 l 644 980 l 890 980 l 829 490 q 798 432 825 456 q 737 408 771 408 l 574 408 l 524 0 l 279 0 z "},"Z":{"ha":969,"x_min":64,"x_max":1001,"o":"m 64 0 l 94 245 l 644 735 l 399 735 l 389 653 l 144 653 l 175 899 q 205 956 179 932 q 266 980 232 980 l 1001 980 l 971 735 l 420 245 l 666 245 l 676 326 l 921 326 l 891 81 q 860 24 887 47 q 800 0 833 0 l 64 0 z "},"€":{"ha":1022,"x_min":77,"x_max":1048,"o":"m 191 611 l 207 735 l 125 735 l 155 980 l 237 980 l 247 1062 l 492 1062 l 481 980 l 972 980 q 1027 956 1006 980 q 1044 899 1048 932 l 1014 653 l 768 653 l 774 694 q 766 723 775 711 q 738 735 755 735 l 452 735 l 436 611 l 652 611 l 639 506 l 423 506 l 418 460 l 633 460 l 621 355 l 405 355 l 396 286 q 405 257 394 269 q 433 245 416 245 l 677 245 q 708 257 694 245 q 723 286 721 269 l 728 326 l 974 326 l 944 81 q 912 24 939 47 q 852 0 886 0 l 198 0 q 143 24 164 0 q 127 81 122 47 l 160 355 l 77 355 l 90 460 l 173 460 l 178 506 l 96 506 l 109 611 l 191 611 z "}}}
